<svg class="icon" viewBox="0 0 1024 1024" version="1.1" xmlns="http://www.w3.org/2000/svg" p-id="2860" width="40" height="25">
    <symbol id="eye-off" viewBox="0 0 1024 1024">
        <path d="M941.677 391.71c9.338-14.006 6.225-32.681-6.225-43.575-14.006-10.894-32.681-7.781-43.575 6.225-1.557 1.556-174.3 205.426-379.728 205.426-199.2 0-379.727-205.426-381.283-206.982-10.895-12.45-31.125-14.006-43.576-3.113-12.45 10.894-14.006 31.125-3.113 43.576 3.113 4.668 40.463 46.687 99.6 93.375l-79.37 82.482c-12.45 12.45-10.893 32.681 1.557 43.575 3.113 6.225 10.894 9.338 18.676 9.338 7.78 0 15.562-3.113 21.787-9.338l85.594-88.706c40.463 28.013 88.707 54.47 141.62 73.144l-32.682 110.495c-4.668 17.118 4.67 34.237 21.788 38.906h9.337c14.006 0 26.457-9.338 29.569-23.344l32.681-110.495c24.9 4.669 51.357 7.782 77.813 7.782s52.913-3.113 77.814-7.782l32.68 108.939c3.114 14.006 17.12 23.343 29.57 23.343 3.113 0 6.225 0 7.782-1.556 17.118-4.67 26.456-21.787 21.788-38.906L649.099 595.58c52.914-18.676 101.157-45.132 141.62-73.144l84.038 87.15c6.225 6.225 14.006 9.338 21.787 9.338 7.781 0 15.563-3.113 21.787-9.337 12.45-12.451 12.45-31.125 1.557-43.576l-79.37-82.481c63.808-46.689 101.16-91.82 101.16-91.82z" p-id="4861"></path>
    </symbol>
    <symbol id="eye-on" viewBox="0 0 1024 1024">
        <path d="M512 192c156.448 0 296.021333 98.730667 418.410667 291.605333a52.938667 52.938667 0 0 1 0 56.789334C808.021333 733.269333 668.448 832 512 832c-156.448 0-296.021333-98.730667-418.410667-291.605333a52.938667 52.938667 0 0 1 0-56.789334C215.978667 290.730667 355.552 192 512 192z m0 128c-106.037333 0-192 85.962667-192 192s85.962667 192 192 192 192-85.962667 192-192-85.962667-192-192-192z m0 320c70.688 0 128-57.312 128-128s-57.312-128-128-128-128 57.312-128 128 57.312 128 128 128z" p-id="1941"></path>
    </symbol>
    <symbol id="back-to-top" viewBox="0 0 1024 1024">
        <path d="M974.721667 146.068773 48.986691 146.068773c-27.055193 0-48.986691-21.931498-48.986691-48.986691 0-27.056216 21.931498-48.987714 48.986691-48.987714l925.734976 0c27.054169 0 48.986691 21.930475 48.986691 48.987714C1023.708358 124.138298 1001.774813 146.068773 974.721667 146.068773z" p-id="2193"></path><path d="M920.54579 535.681352 546.500768 161.638377c-1.144056-1.146103-2.349511-2.229784-3.603061-3.257184-0.547469-0.450255-1.124614-0.838088-1.684362-1.25969-0.716314-0.539282-1.419326-1.092891-2.164293-1.592264-0.684592-0.456395-1.394766-0.853437-2.096754-1.272993-0.668219-0.402159-1.325182-0.820692-2.01489-1.189082-0.719384-0.385786-1.461281-0.713244-2.196015-1.060145-0.712221-0.338714-1.414209-0.691755-2.145873-0.995677-0.716314-0.295735-1.450025-0.534166-2.176572-0.795109-0.780783-0.282433-1.552356-0.582261-2.349511-0.824785-0.728594-0.217964-1.469468-0.379647-2.204202-0.563842-0.812505-0.206708-1.613754-0.433882-2.442632-0.597611-0.852414-0.167822-1.713015-0.26913-2.573615-0.39295-0.721431-0.103354-1.432629-0.2415-2.164293-0.312108-3.214205-0.318248-6.450922-0.318248-9.66308 0-0.732687 0.070608-1.443885 0.209778-2.165316 0.312108-0.860601 0.12382-1.721201 0.225127-2.575662 0.39295-0.826831 0.163729-1.62808 0.391926-2.440585 0.597611-0.735757 0.184195-1.475608 0.344854-2.204202 0.563842-0.800225 0.242524-1.569752 0.542352-2.351558 0.824785-0.726547 0.260943-1.458211 0.499373-2.173502 0.795109-0.732687 0.303922-1.435699 0.661056-2.14792 0.997724-0.735757 0.344854-1.475608 0.671289-2.194992 1.058099-0.688685 0.36839-1.344624 0.786922-2.013867 1.189082-0.701988 0.419556-1.412163 0.815575-2.096754 1.272993-0.744967 0.49835-1.447978 1.051959-2.164293 1.592264-0.559748 0.421602-1.137916 0.810459-1.684362 1.25969-1.254573 1.027399-2.459005 2.111081-3.605108 3.257184L103.162568 535.681352c-19.130709 19.130709-19.130709 50.14712 0 69.27783s50.146097 19.130709 69.27783 0l290.427602-290.426579 0 609.101525c0 27.054169 21.931498 48.986691 48.986691 48.986691 27.055193 0 48.987714-21.933545 48.987714-48.986691L560.842405 314.532603l290.426579 290.426579c9.565866 9.567913 22.102391 14.347776 34.638915 14.347776 12.537548 0 25.074072-4.779863 34.639938-14.347776C939.676499 585.828472 939.676499 554.812061 920.54579 535.681352z" p-id="2194"></path>
    </symbol>
    <symbol id="user" viewBox="0 0 1024 1024">
         <path d="M509.44 1018.368c-141.312 0-277.504-59.904-372.736-164.352l-19.968-21.504 19.968-21.504c95.744-104.448 231.424-164.352 372.736-164.352 141.312 0 277.504 59.904 372.736 164.352l19.968 21.504-19.968 21.504c-95.232 104.448-231.424 164.352-372.736 164.352zM204.8 832.512c81.92 77.824 190.976 121.856 304.64 121.856 113.664 0 222.72-44.032 304.64-121.856-81.92-77.824-190.976-121.856-304.64-121.856-113.664 0-222.72 44.032-304.64 121.856zM509.952 600.576c-89.088 0-161.792-72.704-161.792-161.792 0-89.088 72.704-161.792 161.792-161.792s161.792 72.704 161.792 161.792c0 89.088-72.192 161.792-161.792 161.792z m0-259.584c-53.76 0-97.792 44.032-97.792 97.792s44.032 97.792 97.792 97.792 97.792-44.032 97.792-97.792-43.52-97.792-97.792-97.792z" p-id="3054"></path><path d="M119.296 719.36c-33.792-63.488-51.2-134.144-51.2-206.848 0-243.712 198.144-441.344 441.344-441.344s441.344 198.144 441.344 441.344c0 72.192-17.92 143.36-51.2 206.336 16.384 15.36 31.744 31.744 46.08 49.152 45.568-77.312 69.12-165.376 69.12-255.488 0-279.04-226.816-505.856-505.856-505.856C230.4 7.168 4.096 233.984 4.096 512.512c0 90.112 24.064 178.688 69.632 255.488 13.824-16.896 29.184-33.28 45.568-48.64z" p-id="3055"></path>
    </symbol>
    <symbol id="infor" viewBox="0 0 1024 1024">
        <path d="M821.333333 800H547.584l-86.464 96.074667a32 32 0 1 1-47.573333-42.816l96-106.666667A32 32 0 0 1 533.333333 736h288a53.333333 53.333333 0 0 0 53.333334-53.333333V234.666667a53.333333 53.333333 0 0 0-53.333334-53.333334H202.666667a53.333333 53.333333 0 0 0-53.333334 53.333334v448a53.333333 53.333333 0 0 0 53.333334 53.333333h138.666666a32 32 0 0 1 0 64H202.666667c-64.8 0-117.333333-52.533333-117.333334-117.333333V234.666667c0-64.8 52.533333-117.333333 117.333334-117.333334h618.666666c64.8 0 117.333333 52.533333 117.333334 117.333334v448c0 64.8-52.533333 117.333333-117.333334 117.333333zM704 341.333333a32 32 0 0 1 0 64H320a32 32 0 0 1 0-64h384zM512 512a32 32 0 0 1 0 64H320a32 32 0 0 1 0-64h192z" p-id="3922"></path>
    </symbol>
    <symbol id="download" viewBox="0 0 1024 1024">
        <path d="M544.256 605.184l244.224-244.224a31.744 31.744 0 0 1 45.056 45.056l-295.424 295.424a36.864 36.864 0 0 1-51.2 0L190.464 406.528a31.744 31.744 0 1 1 45.056-45.056l244.224 244.224V111.104a32.256 32.256 0 1 1 64 0zM153.6 902.656a32.256 32.256 0 0 1 0-64h716.8a32.256 32.256 0 0 1 0 64z" p-id="2222"></path>
    </symbol>
    <symbol id="edit" viewBox="0 0 1024 1024">
        <path d="M914.262 907.418H109.741c-19.406 0-35.15 15.745-35.15 35.148 0 19.406 15.744 35.151 35.15 35.151h804.521c19.404 0 35.148-15.745 35.148-35.151 0-19.403-15.744-35.148-35.148-35.148M111.686 801.01H261.07a35.09 35.09 0 0 0 24.852-10.322l534.082-534.059a35.153 35.153 0 0 0 10.297-24.829 35.22 35.22 0 0 0-10.297-24.874L669.635 56.558a35.14 35.14 0 0 0-24.852-10.275h-0.023a35.196 35.196 0 0 0-24.898 10.321L86.765 591.646a35.278 35.278 0 0 0-10.229 24.829v149.386c0 19.38 15.744 35.149 35.15 35.149m533.142-669.829L745.449 231.8l-57.713 57.714-100.504-100.53 57.596-57.803zM146.833 630.983L537.62 238.779l100.412 100.414L246.516 730.71h-99.684v-99.727z" p-id="2972"></path>
    </symbol>
    <symbol id="share" viewBox="0 0 1024 1024">
        <path d="M768.73106 703.537712c-35.606921 0-67.945574 14.793214-91.167479 38.359147l-309.109357-171.670082c9.116748-17.545439 14.621199-37.155048 14.621199-58.312783 0-12.55703-2.408198-24.426004-5.676466-35.950949l304.63699-189.215522c22.705863 20.469679 52.464304 33.198723 85.146985 33.198723 70.525785 0 127.978498-57.452713 127.978498-127.978498S837.708718 63.989249 767.182933 63.989249s-127.978498 57.452713-127.978498 127.978498c0 14.621199 2.92424 28.382328 7.396607 41.455401L344.716278 420.746514c-23.049891-22.705863-54.700487-36.983034-89.791366-36.983034-70.525785 0-127.978498 57.452713-127.978498 127.978498s57.452713 127.978498 127.978498 127.978498c25.630102 0 49.540064-7.740635 69.493701-20.813707l321.150344 178.378633c-3.096254 11.008903-5.160423 22.18982-5.160423 34.058794 0 70.525785 57.452713 127.978498 127.978498 127.978498s127.978498-57.452713 127.978498-127.978498S839.256845 703.537712 768.73106 703.537712zM767.182933 127.978498c35.262893 0 63.989249 28.726356 63.989249 63.989249s-28.726356 63.989249-63.989249 63.989249-63.989249-28.726356-63.989249-63.989249S731.92004 127.978498 767.182933 127.978498zM191.107677 511.913993c0-35.262893 28.726356-63.989249 63.989249-63.989249s63.989249 28.726356 63.989249 63.989249-28.726356 63.989249-63.989249 63.989249S191.107677 547.176886 191.107677 511.913993zM768.73106 895.505459c-35.262893 0-63.989249-28.726356-63.989249-63.989249s28.726356-63.989249 63.989249-63.989249 63.989249 28.726356 63.989249 63.989249C832.720309 866.951117 803.993953 895.505459 768.73106 895.505459z" p-id="3879"></path>
    </symbol>
    <symbol id="more" viewBox="0 0 1024 1024">
        <path d="M227.14123 413.647995c-52.14973 0-94.587262 42.439578-94.587262 94.587262 0 52.14973 42.437531 94.587262 94.587262 94.587262 52.147684 0 94.587262-42.437531 94.587262-94.587262C321.728492 456.087573 279.288914 413.647995 227.14123 413.647995z" p-id="4685"></path><path d="M510.903016 413.647995c-52.14973 0-94.587262 42.439578-94.587262 94.587262 0 52.14973 42.437531 94.587262 94.587262 94.587262 52.147684 0 94.587262-42.437531 94.587262-94.587262C605.490278 456.087573 563.051723 413.647995 510.903016 413.647995z" p-id="4686"></path><path d="M794.665825 413.647995c-52.14973 0-94.587262 42.439578-94.587262 94.587262 0 52.14973 42.437531 94.587262 94.587262 94.587262 52.147684 0 94.587262-42.437531 94.587262-94.587262C889.253086 456.087573 846.813508 413.647995 794.665825 413.647995z" p-id="4687"></path>
    </symbol>
    <symbol id="error" viewBox="0 0 1024 1024">
        <path d="M512 1008.693C237.69 1008.693 15.307 786.31 15.307 512 15.307 237.69 237.69 15.307 512 15.307c274.319 0 496.693 222.374 496.693 496.693 0 274.31-222.383 496.693-496.693 496.693z m0-931.3C271.97 77.394 77.394 271.972 77.394 512c0 240.03 194.577 434.606 434.606 434.606 240.03 0 434.606-194.577 434.606-434.606C946.606 271.97 752.03 77.394 512 77.394z m44.08 434.779l131.523 131.533c12.129 12.12 12.129 31.78 0 43.898-12.119 12.12-31.779 12.12-43.898 0L512.172 556.07 379.744 688.498c-12.218 12.218-32.032 12.218-44.25 0-12.22-12.22-12.22-32.024 0-44.242L467.92 511.828 336.397 380.295c-12.129-12.12-12.129-31.78 0-43.898 12.119-12.129 31.779-12.129 43.898 0L511.828 467.93l133.403-133.403c12.219-12.219 32.032-12.219 44.25 0 12.22 12.219 12.22 32.032 0 44.242L556.08 512.172z" p-id="2208"></path>
    </symbol>
    <symbol id="spin" viewBox="0 0 1024 1024">
    </symbol>
    <symbol id="left-row" viewBox="0 0 1024 1024">
        <path d="M222.451715 513.728968L722.745849 13.63942599c18.242732-18.242732 47.73799-18.106338 65.844327 0.30688701a47.226511 47.226511 0 0 1-0.272788 66.389904l-433.358652 433.154061L788.215092 943.643665A47.192413 47.192413 0 0 1 788.692472 1010.033569 46.30585 46.30585 0 0 1 722.848144 1010.545048l-500.396429-496.81608z" fill="" p-id="2233"></path>
    </symbol>
    <symbol id="right-row" viewBox="0 0 1024 1024">
        <path d="M268.373 908.63l60.587 60.074 456.704-460.373L328.704 55.04l-60.075 60.587 396.374 393.216z" p-id="2383"></path>
    </symbol>
    <symbol id="trend-change" viewBox="0 0 1024 1024">
        <path d="M115.2 486.4v25.6c0 220.16 176.64 396.8 396.8 396.8S908.8 732.16 908.8 512c0-40.96-5.12-79.36-17.92-115.2-58.88 5.12-120.32 17.92-179.2 46.08-189.44 89.6-291.84 92.16-463.36 46.08-43.52-12.8-87.04-12.8-133.12-2.56z" p-id="3251"></path><path d="M512 1024C230.4 1024 0 793.6 0 512S230.4 0 512 0s512 230.4 512 512-230.4 512-512 512z m0-972.8C258.56 51.2 51.2 258.56 51.2 512s207.36 460.8 460.8 460.8 460.8-207.36 460.8-460.8S765.44 51.2 512 51.2z"  p-id="3252"></path>
    </symbol>、
    <symbol id="home-status" viewBox="0 0 1024 1024">
        <path d="M959.825022 191.939717C959.825022 121.2479 902.517291 63.940169 831.825474 63.940169H191.939717C121.2479 63.940169 63.940169 121.2479 63.940169 191.939717v639.885757C63.940169 902.517291 121.2479 959.825022 191.939717 959.825022h639.885757c70.691817 0 127.999548-57.307731 127.999548-127.999548V191.939717zM146.715595 146.66502a63.839021 63.839021 0 0 1 45.372232-18.784682h639.824346A64.037705 64.037705 0 0 1 895.884854 192.001129V480.093133s0.0289 0 0 0h-50.527184l-54.764574-54.710387a31.970084 31.970084 0 0 0-52.933067 12.506263L698.078535 556.676838l-93.482694-186.965389a31.970084 31.970084 0 0 0-58.279477 2.423947l-93.269561 233.168483-102.307883-358.086621a31.970084 31.970084 0 0 0-59.330697-5.519807l-119.264671 238.269247L127.880338 480.093133V192.001129A63.777609 63.777609 0 0 1 146.715595 146.66502z m730.43515 730.536299a63.456102 63.456102 0 0 1-45.253022 18.67631H192.087827c-17.112123 0-33.270563-6.574639-45.372232-18.67631S127.880338 849.110994 127.880338 831.998871V544.033302l64.135241-0.180622a32.024271 32.024271 0 0 0 28.538267-17.668439l91.261045-182.395653L417.236696 712.781162a31.977309 31.977309 0 0 0 29.112645 23.144896q0.823636 0.043349 1.64366 0.043349a31.973697 31.973697 0 0 0 29.676186-20.095998l101.560108-253.900269 96.163124 192.322635a31.970084 31.970084 0 0 0 58.926104-4.186816l47.651681-142.951433 27.552072 27.523172a31.970084 31.970084 0 0 0 22.60303 9.352604H895.884854c0.0289 0 0 0 0 0v287.965569a63.398303 63.398303 0 0 1-18.719659 45.209673z" p-id="4090"></path>
    </symbol>
    <symbol id="home-energy-1" viewBox="0 0 1024 1024">
        <path d="M416.936317 604.544746a23.783418 23.783418 0 1 0 23.783418-23.783417 23.783418 23.783418 0 0 0-23.783418 23.783417z" fill="#28dbd7" p-id="2351" data-spm-anchor-id="a313x.7781069.0.i34" class="selected"></path><path d="M490.664912 497.048654a31.488254 31.488254 0 1 0 31.488254-31.488254 31.488254 31.488254 0 0 0-31.488254 31.488254z" fill="#28dbd7" p-id="2352" data-spm-anchor-id="a313x.7781069.0.i39" class="selected"></path><path d="M645.653517 183.974645a91.987322 91.987322 0 1 1 91.987322-91.987323 92.111194 92.111194 0 0 1-91.987322 91.987323z" fill="#28dbd7" p-id="2353" data-spm-anchor-id="a313x.7781069.0.i38" class="selected"></path><path d="M440.719735 290.876152a64.958459 64.958459 0 1 1 64.958459-64.958459 65.032783 65.032783 0 0 1-64.958459 64.958459z" fill="#28dbd7" p-id="2354" data-spm-anchor-id="a313x.7781069.0.i37" class="selected"></path><path d="M274.11194 718.283986s90.699054-44.593908 244.225969 0 251.881257-26.409503 251.881257 0-117.034234 240.138195-117.034234 240.138195l-237.834176 22.891539-89.03917-55.965354-52.150098-160.290325z" fill="#1d6668" p-id="2355" data-spm-anchor-id="a313x.7781069.0.i31" class=""></path><path d="M771.30924 633.060073a282.428084 282.428084 0 0 0-135.292962-143.12167v-126.027339h78.559601v-62.183727l-421.437205 1.139622v61.044105l74.32318-1.263494v138.315438a281.461883 281.461883 0 1 0 403.822611 132.121839z m-259.387899 330.465633a220.789393 220.789393 0 0 1-113.51627-410.189631c9.538141-5.747659 29.729272-14.988508 29.729272-14.988508v-175.427479l147.110348 0.743232v167.474899a220.838942 220.838942 0 0 1-63.397673 432.387487z" fill="#189797" p-id="2356" data-spm-anchor-id="a313x.7781069.0.i32" class=""></path>
    </symbol>
    <symbol id="home-energy-2" viewBox="0 0 1024 1024">
        <path d="M410.558481 0.10861C410.558481 211.083075 109.682285 361.860579 109.682285 633.656511c0 174.943176 134.703259 316.787527 300.876196 316.787527s300.876197-141.817198 300.876197-316.787527C711.407525 361.751969 410.558481 210.974465 410.558481 0.10861z" fill="#189797" p-id="4086" data-spm-anchor-id="a313x.7781069.0.i66" class=""></path><path d="M613.468671 73.664572c0 211.055922-300.876197 361.914883-300.876196 633.547901 0 174.943176 134.703259 316.787527 300.876196 316.787527s300.876197-141.817198 300.876197-316.787527c-0.054305-271.633018-300.876197-422.491979-300.876197-633.547901z" fill="#28dbd7" p-id="4087" data-spm-anchor-id="a313x.7781069.0.i67" class="selected"></path><path d="M312.592475 707.212473c0-183.713414 137.635722-312.171612 226.72288-441.390078 81.701694 106.111739 172.119322 218.740063 172.119323 367.725506a309.755045 309.755045 0 0 1-291.074166 316.516003 323.114046 323.114046 0 0 1-107.768037-242.851431z" fill="#303F5B" p-id="4088"></path>
    </symbol>
    <symbol id="home-energy-3" viewBox="0 0 1024 1024">
        <path d="M256.75578 247.89594a59.863787 59.863787 0 0 1 104.162989 0l151.694835 267.680921a59.863787 59.863787 0 0 1-52.081494 89.376633H157.14244a59.863787 59.863787 0 0 1-52.081495-89.376633z" fill="#189797" p-id="4352" data-spm-anchor-id="a313x.7781069.0.i71" class=""></path><path d="M765.597966 247.89594a59.863787 59.863787 0 0 1 104.162988 0l151.694835 267.680921a59.863787 59.863787 0 0 1-52.081494 89.376633H665.984625a59.863787 59.863787 0 0 1-52.081494-89.376633z" fill="#189797" p-id="4353" data-spm-anchor-id="a313x.7781069.0.i72" class=""></path><path d="M522.04215 89.226974a59.863787 59.863787 0 0 1 103.564351 0l228.978983 394.352693a59.863787 59.863787 0 0 1-51.782175 89.79568H344.935138a59.863787 59.863787 0 0 1-51.782176-89.79568z" fill="#189797" p-id="4354" data-spm-anchor-id="a313x.7781069.0.i70" class=""></path><path d="M293.871328 904.272427a119.727573 104.761626 90 1 0 209.523253 0 119.727573 104.761626 90 1 0-209.523253 0Z" fill="#1aaba8" p-id="4355" data-spm-anchor-id="a313x.7781069.0.i75" class="selected"></path><path d="M623.122154 904.272427a119.727573 104.761626 90 1 0 209.523252 0 119.727573 104.761626 90 1 0-209.523252 0Z" fill="#1aaba8" p-id="4356" data-spm-anchor-id="a313x.7781069.0.i76" class="selected"></path><path d="M222.962673 868.144632v-256.785712h680.62132v256.785712zM0 611.35892v-91.412002h1126.516734v91.412002z" fill="#28dbd7" p-id="4357" data-spm-anchor-id="a313x.7781069.0.i74" class=""></path>
    </symbol>
    <symbol id="home-energy-4" viewBox="0 0 1024 1024">
        <path d="M338.432 687.616c-24.576 0-45.056 19.968-45.056 45.056 0 24.576 19.968 44.544 45.056 44.544s44.544-19.968 44.544-44.544c0-25.088-19.968-45.056-44.544-45.056z" fill="#28dbd7" p-id="9868" data-spm-anchor-id="a313x.7781069.0.i114" class=""></path><path d="M443.392 226.304m-28.672 0a28.672 28.672 0 1 0 57.344 0 28.672 28.672 0 1 0-57.344 0Z" fill="#28dbd7" p-id="9869" data-spm-anchor-id="a313x.7781069.0.i118" class=""></path><path d="M628.224 360.96c17.408-0.512 31.232-14.848 31.232-31.232 0-17.408-13.824-31.232-31.232-31.232s-31.232 13.824-31.232 31.232c0 17.408 13.824 31.232 31.232 31.232z" fill="#28dbd7" p-id="9870" data-spm-anchor-id="a313x.7781069.0.i117" class=""></path><path d="M972.8 500.736h-61.952v-5.12c-3.072-56.832-17.408-111.104-43.52-161.792l-2.048-4.096 53.248-30.72c3.584-2.048 6.144-5.632 7.168-9.216 1.024-4.096 0.512-8.192-1.536-11.776-4.096-7.168-13.824-10.24-20.992-5.632l-53.248 30.72-2.56-4.096c-30.208-46.592-71.168-87.552-118.272-118.272l-4.096-2.56 31.232-53.76c2.048-3.584 2.56-7.68 1.536-11.776-1.024-4.096-3.584-7.168-7.168-9.728-7.68-4.096-16.896-1.536-20.992 5.632l-30.72 53.76-4.096-2.048c-50.688-26.112-104.96-40.448-161.28-43.52h-5.12v-61.44c0-8.704-6.656-15.36-15.36-15.36s-15.36 6.656-15.36 15.36v61.952h-5.12c-56.32 3.072-110.592 17.408-161.28 43.52l-4.096 2.048-30.72-53.76c-4.096-7.168-13.824-10.24-20.992-5.632-3.584 2.048-6.144 5.632-7.168 9.216-1.024 4.096-0.512 8.192 1.536 11.776l31.232 53.76-4.096 2.56c-47.104 30.208-88.064 71.168-118.272 118.272l-4.608 4.096-53.76-31.232c-7.68-4.096-16.896-1.536-20.992 5.632-2.048 3.584-2.56 7.68-1.536 11.776 1.024 4.096 3.584 7.168 7.168 9.216l53.76 30.72-2.048 4.096c-26.112 50.688-40.448 104.96-43.52 161.28v5.12H51.2c-8.704 0-15.36 6.656-15.36 15.36s6.656 15.36 15.36 15.36h61.952v5.12c3.072 56.32 17.408 111.104 43.52 161.28l2.048 4.096-53.76 30.72c-7.168 4.096-10.24 13.824-5.632 20.992 4.096 7.168 13.312 9.728 21.504 5.632l53.76-30.72 2.56 4.096c30.208 47.104 71.168 87.552 118.272 118.272l4.096 2.56-30.72 53.248c-4.096 7.168-1.536 16.896 5.632 20.992 2.56 1.024 5.12 2.048 7.68 2.048 5.632 0 10.752-3.072 13.312-7.68l30.72-53.248 4.096 2.048c50.688 26.112 104.96 40.448 161.792 43.52h5.12v61.952c0 8.704 6.656 15.36 15.36 15.36s15.36-6.656 15.36-15.36v-61.952h5.12c56.832-3.072 111.104-17.408 161.792-43.52l4.096-2.048 30.72 53.248c3.072 4.608 7.68 7.68 13.312 7.68 3.584 0 5.632-0.512 7.168-1.536 3.584-2.048 6.144-5.632 7.68-9.728 1.024-4.096 0.512-8.192-1.536-11.776l-30.72-53.76 4.096-2.56c46.592-30.208 87.552-71.168 117.76-117.76l2.56-4.096 53.76 30.72c2.56 1.024 5.12 2.048 7.68 2.048 5.632 0 10.752-3.072 13.312-7.68 4.096-7.168 1.536-16.896-5.632-20.992l-53.248-30.72 2.048-4.096c26.112-50.688 40.448-104.96 43.52-161.792v-5.12h61.44c8.704 0 15.36-6.656 15.36-15.36s-6.656-13.824-15.36-13.824z m-141.312 198.656l-1.024 1.536c-32.256 55.296-78.336 101.376-133.12 133.12l-1.024 0.512-0.512 0.512c-55.808 32.256-119.296 49.152-183.808 49.152-64 0-127.488-16.896-183.296-49.152l-1.024-0.512h-0.512C214.016 768 143.36 646.144 143.36 516.096c0-203.264 165.376-368.64 368.64-368.64 130.048 0 252.416 70.144 318.464 183.296l1.024 1.536c32.256 56.32 49.152 119.296 49.152 183.808 0 64.512-16.896 127.488-49.152 183.296z" fill="#189797" p-id="9871" data-spm-anchor-id="a313x.7781069.0.i109" class=""></path><path d="M386.56 590.336c-74.24 0-134.656-60.416-134.656-134.656S312.32 321.024 386.56 321.024s134.656 60.416 134.656 134.656-60.416 134.656-134.656 134.656z" fill="#28dbd7" p-id="9872" data-spm-anchor-id="a313x.7781069.0.i115" class=""></path><path d="M386.56 333.824c67.072 0 121.856 54.784 121.856 121.856s-54.784 121.856-121.856 121.856S264.704 522.752 264.704 455.68s54.784-121.856 121.856-121.856m0-25.6c-81.408 0-147.456 66.048-147.456 147.456s66.048 147.456 147.456 147.456 147.456-66.048 147.456-147.456-66.048-147.456-147.456-147.456z" fill="#189797" p-id="9873" data-spm-anchor-id="a313x.7781069.0.i110" class="selected"></path><path d="M562.688 726.016m-96.768 0a96.768 96.768 0 1 0 193.536 0 96.768 96.768 0 1 0-193.536 0Z" fill="#28dbd7" p-id="9874" data-spm-anchor-id="a313x.7781069.0.i113" class=""></path><path d="M562.688 654.848c39.424 0 71.168 31.744 71.168 71.168s-31.744 71.168-71.168 71.168S491.52 765.44 491.52 726.016s31.744-71.168 71.168-71.168m0-25.6c-53.248 0-96.768 43.52-96.768 96.768s43.52 96.768 96.768 96.768 96.768-43.52 96.768-96.768-43.52-96.768-96.768-96.768z" fill="#189797" p-id="9875" data-spm-anchor-id="a313x.7781069.0.i112" class=""></path><path d="M734.72 516.096m-80.896 0a80.896 80.896 0 1 0 161.792 0 80.896 80.896 0 1 0-161.792 0Z" fill="#28dbd7" p-id="9876" data-spm-anchor-id="a313x.7781069.0.i116" class=""></path><path d="M734.72 460.8c30.72 0 55.296 24.576 55.296 55.296s-24.576 55.296-55.296 55.296-55.296-24.576-55.296-55.296S704 460.8 734.72 460.8m0-25.6c-44.544 0-80.896 36.352-80.896 80.896s36.352 80.896 80.896 80.896 80.896-36.352 80.896-80.896S779.264 435.2 734.72 435.2z" fill="#189797" p-id="9877" data-spm-anchor-id="a313x.7781069.0.i111" class=""></path>
    </symbol>
    <symbol id="home-energy-5" viewBox="0 0 1024 1024">
        <path d="M99.84 693.248c7.168-7.68 184.32-181.76 466.432-3.584 4.608 3.072 72.704 43.008 170.496 43.008 65.024 0 143.36-17.92 224.256-76.288 0 0 0.512 0 0.512-0.512 12.288-9.216 14.848-26.112 5.632-38.4-9.216-12.288-26.624-15.36-39.424-6.144-172.032 123.904-326.144 34.816-331.776 31.232-322.048-203.776-535.04 9.728-537.088 11.776l-0.512 0.512c-10.24 11.264-9.728 28.16 1.024 38.912 11.776 11.264 29.184 10.752 40.448-0.512z" p-id="6431" fill="#189797" data-spm-anchor-id="a313x.7781069.0.i102" class="selected"></path><path d="M928.256 765.44c-172.032 123.904-326.144 34.816-331.776 31.232-322.048-203.776-535.04 9.728-537.088 11.776l-0.512 0.512c-10.24 11.264-9.728 28.16 1.024 38.912 11.264 10.752 29.184 10.24 39.936-0.512 7.168-7.68 184.32-181.76 466.432-3.584 4.608 3.072 72.704 43.008 170.496 43.008 65.024 0 143.36-17.92 224.256-76.288 0 0 0.512 0 0.512-0.512 12.288-9.216 14.848-26.112 5.632-38.4-9.216-12.8-26.624-15.36-38.912-6.144zM674.304 311.808zM823.296 471.04zM879.616 346.624c15.36 0 28.16-12.288 28.16-27.648 0-15.36-12.8-28.16-28.16-27.648-15.36 0-28.16 12.288-28.16 27.648 0 15.36 12.8 27.648 28.16 27.648zM674.304 311.808c39.936 0 72.192-32.256 72.192-72.192-1.024-37.888-31.744-68.608-70.144-70.144-39.936-1.536-73.216 30.208-74.752 70.144 0.512 39.424 32.768 71.68 72.704 72.192zM823.296 587.776c32.768 0 58.88-26.112 58.88-58.368 0-32.256-26.624-58.368-58.88-58.368-32.768 0-58.88 26.112-58.88 58.368 0 32.256 26.624 58.368 58.88 58.368zM303.616 423.424c15.36 0 28.16-12.288 28.16-27.648 0-15.36-12.8-28.16-28.16-27.648-15.36 0-28.16 12.288-28.16 27.648 0.512 15.36 12.8 27.648 28.16 27.648z" p-id="6432" fill="#189797" data-spm-anchor-id="a313x.7781069.0.i104" class="selected"></path><path d="M174.592 471.552m-58.368 0a58.368 58.368 0 1 0 116.736 0 58.368 58.368 0 1 0-116.736 0Z" p-id="6433" fill="#28dbd7"></path><path d="M518.656 538.624c49.664 0 89.6-40.448 89.6-89.6 0-49.664-39.936-89.6-89.6-89.6s-89.6 40.448-89.6 89.6 39.936 89.6 89.6 89.6zM356.352 137.216zM356.352 297.472c44.544 0 80.896-35.84 80.896-80.384 0-44.032-35.84-79.872-80.384-80.384-44.544 0-80.896 35.84-80.896 80.384-0.512 44.544 35.84 80.384 80.384 80.384z" p-id="6434" fill="#28dbd7"></path>
    </symbol>
    <symbol id="home-energy-6" viewBox="0 0 1024 1024">
        <path d="M334.736384 327.68h440.32c15.36 0 25.6-10.24 35.84-20.48 5.12-10.24 5.12-25.6 0-40.96-5.12-10.24-20.48-20.48-35.84-20.48H334.736384c-20.48 0-40.96 20.48-40.96 40.96 5.12 20.48 20.48 40.96 40.96 40.96zM155.536384 476.16c35.84 0 476.16-5.12 665.6-5.12 189.44 0 215.04-194.56 215.04-209.92C1000.336384 0 795.536384 30.72 805.776384 30.72c-25.6-5.12-56.32 40.96 0 76.8 10.24 0 163.84 0 153.6 168.96 0 0-40.96 122.88-174.08 122.88H165.776384C88.976384 394.24 88.976384 476.16 155.536384 476.16z m660.48 71.68c-189.44 0-727.04-5.12-762.88-5.12-71.68 0-71.68 81.92 5.12 81.92h721.92c133.12 0 174.08 117.76 174.08 122.88 10.24 168.96-209.92 168.96-220.16 168.96-56.32 30.72-25.6 76.8 0 76.8-10.24 0 276.48 51.2 296.96-230.4 0-25.6-25.6-215.04-215.04-215.04z m-307.2 143.36H242.576384c-71.68 0-71.68 81.92 5.12 81.92l225.28-5.12c133.12 0 122.88 71.68 122.88 76.8-15.36 81.92-76.8 61.44-87.04 61.44-56.32 30.72-15.36 81.92 5.12 81.92-10.24 0 133.12 20.48 153.6-133.12 5.12-20.48-5.12-163.84-158.72-163.84z m0 0" fill="#28dbd7" p-id="7417" data-spm-anchor-id="a313x.7781069.0.i106" class="selected"></path>
    </symbol>
    <symbol id="visualization" viewBox="0 0 1024 1024">
        <path d="M889 845H135C60.6 845 0 784.4 0 710V135C0 60.6 60.6 0 135 0h754c74.4 0 135 60.6 135 135v575c0 74.4-60.6 135-135 135zM135 90c-24.8 0-45 20.2-45 45v575c0 24.8 20.2 45 45 45h754c24.8 0 45-20.2 45-45V135c0-24.8-20.2-45-45-45H135zM852 1024H172c-24.9 0-45-20.1-45-45s20.1-45 45-45h680c24.9 0 45 20.1 45 45s-20.1 45-45 45z" p-id="2352"></path><path d="M214 612.2c-9 0-18.2-2.7-26.1-8.4-20.2-14.4-24.9-42.5-10.5-62.8l129.3-181.3c16.1-22.7 40.2-37.7 67.6-42.3 27.4-4.6 55 1.8 77.7 17.9l161.9 115.4c6.4 4.5 15.2 3.1 19.8-3.3l139.8-195.7c14.4-20.2 42.5-24.9 62.8-10.5 20.2 14.4 24.9 42.5 10.5 62.8L706.9 499.7c-33.3 46.7-98.5 57.7-145.3 24.3L399.7 408.6c-4.2-3-8.4-2.8-10.6-2.4-2.2 0.4-6.2 1.6-9.2 5.8L250.6 593.3c-8.7 12.3-22.6 18.9-36.6 18.9z" p-id="2353"></path>
    </symbol>
    <symbol id="import" viewBox="0 0 1024 1024">
        <path d="M1024 438.857143H542.72l18.285714-18.285714a73.142857 73.142857 0 1 0-103.862857-103.131429L365.714286 408.137143a146.285714 146.285714 0 0 0 0 204.8l91.428571 90.697143a73.142857 73.142857 0 0 0 51.931429 21.942857 73.142857 73.142857 0 0 0 51.931428-124.342857L545.645714 585.142857H1024a73.142857 73.142857 0 0 0 0-146.285714z" fill="" p-id="4039"></path><path d="M804.571429 653.897143a73.142857 73.142857 0 0 0-73.142858 73.142857V804.571429a73.142857 73.142857 0 0 1-73.142857 73.142857H219.428571a73.142857 73.142857 0 0 1-73.142857-73.142857V219.428571a73.142857 73.142857 0 0 1 73.142857-73.142857h438.857143a73.142857 73.142857 0 0 1 73.142857 73.142857v73.142858a73.142857 73.142857 0 0 0 146.285715 0V219.428571a219.428571 219.428571 0 0 0-219.428572-219.428571H219.428571a219.428571 219.428571 0 0 0-219.428571 219.428571v585.142858a219.428571 219.428571 0 0 0 219.428571 219.428571h438.857143a219.428571 219.428571 0 0 0 219.428572-219.428571V727.04a73.142857 73.142857 0 0 0-73.142857-73.142857z" fill="" p-id="4040"></path>
    </symbol>
    <symbol id="star" viewBox="0 0 1024 1024">
        <path d="M565.273 34.627L677.369 272.17c8.706 18.32 25.411 31.051 44.823 33.996l250.776 38.081c48.698 7.411 68.225 70.046 32.934 105.98L824.407 635.164c-13.998 14.23-20.352 34.815-17.059 54.935l42.82 261.127c8.346 50.696-42.643 89.452-86.226 65.519L539.634 893.474c-17.286-9.526-37.992-9.526-55.278 0l-224.314 123.27c-43.583 23.934-94.572-14.822-86.22-65.518L216.638 690.1c3.32-20.12-3.089-40.705-17.087-54.935L18.11 450.227c-35.285-35.934-15.818-98.574 32.934-105.98l250.75-38.081c19.35-2.94 36.082-15.675 44.756-33.996L458.673 34.627c21.825-46.168 84.836-46.168 106.6 0z" fill="" p-id="2207"></path>
    </symbol>
</svg>